<?xml version="1.0" encoding="UTF-8"?>
<svg xmlns="http://www.w3.org/2000/svg" viewBox="0 0 1880 460" width="1880" height="460">
  <defs>
    <marker id="arr" markerWidth="8" markerHeight="8" refX="7" refY="4" orient="auto">
      <path d="M0,0 L8,4 L0,8 z" fill="#c8c8d4"/>
    </marker>
    <style type="text/css"><![CDATA[
      .bg { fill: #151518; }
      .hdr { font: 600 22px "Segoe UI", Arial, sans-serif; fill: #f4f4f8; }
      .box-t { font: 500 13px "Segoe UI", Arial, sans-serif; fill: #eeeeF2; }
      .box-line { fill: #151518; stroke: #e2e2ea; stroke-width: 1.15; }
    ]]></style>
  </defs>
  <rect class="bg" width="100%" height="100%"/>

  <text x="48" y="44" class="hdr">&#50;&#46;&#32;&#1051;&#1086;&#1075;&#1080;&#1082;&#1072;&#32;&#1092;&#1091;&#1085;&#1082;&#1094;&#1080;&#1081;&#32;&#40;&#1086;&#1090;&#32;&#47;&#115;&#116;&#97;&#114;&#116;&#41;</text>

  <g id="boxes" font-family="Segoe UI, Arial, sans-serif">
    <rect x="48" y="232" width="168" height="56" class="box-line"/>
    <text x="132" y="264" text-anchor="middle" class="box-t">&#47;&#115;&#116;&#97;&#114;&#116;&#32;&#183;&#32;&#1089;&#1086;&#1086;&#1073;&#1097;&#1077;&#1085;&#1080;&#1077;&#32;&#183;&#32;&#99;&#97;&#108;&#108;&#98;&#97;&#99;&#107;</text>

    <rect x="248" y="232" width="248" height="56" class="box-line"/>
    <text x="372" y="264" text-anchor="middle" class="box-t">&#1064;&#1083;&#1102;&#1079;&#58;&#32;&#115;&#101;&#114;&#105;&#97;&#108;&#105;&#122;&#101;&#114;&#32;&#183;&#32;&#100;&#101;&#100;&#117;&#112;&#32;&#183;&#32;&#1086;&#1076;&#1080;&#1085;&#32;&#1086;&#1090;&#1074;&#1077;&#1090;</text>

    <rect x="528" y="232" width="152" height="56" class="box-line"/>
    <text x="604" y="264" text-anchor="middle" class="box-t">register_actor</text>

    <rect x="728" y="168" width="220" height="52" class="box-line"/>
    <text x="838" y="198" text-anchor="middle" class="box-t">&#1054;&#1085;&#1073;&#1086;&#1088;&#1076;&#1080;&#1085;&#1075;&#58;&#32;&#1080;&#1084;&#1103;&#32;&#8594;&#32;&#1092;&#1072;&#1084;&#1080;&#1083;&#1080;&#1103;&#32;&#8594;&#32;&#1089;&#1089;&#1099;&#1083;&#1082;&#1072;</text>

    <rect x="728" y="300" width="220" height="52" class="box-line"/>
    <text x="838" y="330" text-anchor="middle" class="box-t">&#1056;&#1077;&#1075;&#1080;&#1089;&#1090;&#1088;&#1072;&#1094;&#1080;&#1103;&#58;&#32;&#112;&#114;&#101;&#118;&#105;&#101;&#119;&#95;&#108;&#105;&#110;&#107;&#105;&#110;&#103;&#32;&#183;&#32;&#105;&#110;&#108;&#105;&#110;&#101;</text>

    <rect x="992" y="232" width="248" height="56" class="box-line"/>
    <text x="1116" y="264" text-anchor="middle" class="box-t">&#1043;&#1086;&#1090;&#1086;&#1074;&#32;&#117;&#115;&#101;&#114;&#32;&#8594;&#32;&#1082;&#1086;&#1084;&#1072;&#1085;&#1076;&#1099;&#32;&#1080;&#32;&#1089;&#1094;&#1077;&#1085;&#1072;&#1088;&#1080;&#1080;</text>

    <rect x="1288" y="168" width="208" height="52" class="box-line"/>
    <text x="1392" y="198" text-anchor="middle" class="box-t">&#68;&#111;&#109;&#97;&#105;&#110;&#32;&#8212;&#32;&#1087;&#1088;&#1072;&#1074;&#1080;&#1083;&#1072;&#32;&#1079;&#1072;&#1076;&#1072;&#1095;</text>

    <rect x="1288" y="300" width="208" height="52" class="box-line"/>
    <text x="1392" y="330" text-anchor="middle" class="box-t">&#1055;&#1086;&#1088;&#1090;&#1099;&#32;&#47;&#32;&#1072;&#1076;&#1072;&#1087;&#1090;&#1077;&#1088;&#1099;</text>

    <rect x="1548" y="112" width="200" height="48" class="box-line"/>
    <text x="1648" y="140" text-anchor="middle" class="box-t">&#83;&#81;&#76;&#105;&#116;&#101;&#32;&#183;&#32;&#1088;&#1077;&#1087;&#1086;&#1079;&#1080;&#1090;&#1086;&#1088;&#1080;&#1080;</text>

    <rect x="1548" y="206" width="200" height="48" class="box-line"/>
    <text x="1648" y="234" text-anchor="middle" class="box-t">&#71;&#101;&#109;&#105;&#110;&#105;&#32;&#183;&#32;&#83;&#84;&#84;</text>

    <rect x="1548" y="300" width="200" height="48" class="box-line"/>
    <text x="1648" y="328" text-anchor="middle" class="box-t">&#78;&#111;&#116;&#105;&#102;&#105;&#101;&#114;</text>
  </g>

  <g fill="none" stroke="#b8b8c4" stroke-width="1.1" marker-end="url(#arr)">
    <path d="M 216 260 L 248 260"/>
    <path d="M 496 260 L 528 260"/>
    <path d="M 680 260 L 704 260"/>
    <path d="M 704 260 L 704 194 L 728 194"/>
    <path d="M 704 260 L 704 326 L 728 326"/>
    <path d="M 948 194 L 968 194 L 968 260 L 992 260"/>
    <path d="M 948 326 L 968 326 L 968 260"/>
    <path d="M 1240 260 L 1256 260 L 1256 194 L 1288 194"/>
    <path d="M 1256 260 L 1256 326 L 1288 326"/>
    <path d="M 1496 326 L 1520 326 L 1520 136 L 1548 136"/>
    <path d="M 1520 326 L 1520 230 L 1548 230"/>
    <path d="M 1520 326 L 1520 324 L 1548 324"/>
  </g>
</svg>
